<svg preserveAspectRatio="none" width="100%" height="100%" overflow="visible" style="display: block;" viewBox="0 0 227.697 43.638" fill="none" xmlns="http://www.w3.org/2000/svg">
<g id="Group 498">
<path id="Path 408" d="M225.085 28.707L224.9 29.018C224.548 29.6244 224.135 30.1939 223.669 30.718C223.095 30.8089 222.514 30.8527 221.932 30.849C219.252 30.7213 216.602 30.2163 214.063 29.349L209.586 27.838C207.073 26.9124 204.434 26.3742 201.759 26.242C199.477 26.3488 197.221 26.7629 195.05 27.473L189.46 29.345C186.933 30.2074 184.298 30.7123 181.632 30.845C178.964 30.7126 176.327 30.2077 173.798 29.345L168.209 27.473C166.038 26.7626 163.782 26.3485 161.5 26.242C158.825 26.3733 156.186 26.9104 153.672 27.835L149.195 29.346C146.655 30.2135 144.004 30.7185 141.323 30.846C140.744 30.8501 140.166 30.8063 139.594 30.715C139.122 30.1944 138.707 29.6244 138.357 29.015L138.17 28.704C139.225 28.9049 140.296 29.0173 141.37 29.04C144.044 28.9057 146.683 28.3693 149.198 27.449L153.675 25.931C156.207 25.097 158.84 24.6057 161.502 24.47C164.163 24.6061 166.793 25.0975 169.324 25.931L173.801 27.449C176.317 28.3697 178.957 28.9061 181.633 29.04C184.308 28.9061 186.948 28.3697 189.464 27.449L193.941 25.931C196.471 25.0982 199.1 24.6069 201.76 24.47C204.424 24.6051 207.058 25.0965 209.592 25.931L214.069 27.449C216.584 28.3695 219.223 28.9059 221.897 29.04C222.969 29.0171 224.038 28.9047 225.092 28.704M218.415 35.004L211.899 33.004C208.968 32.104 207.835 31.789 206.273 31.444C204.792 31.0999 203.279 30.9069 201.759 30.868C199.099 31.0106 196.47 31.5018 193.938 32.329L189.459 33.847C186.938 34.7748 184.29 35.3114 181.606 35.438C178.923 35.3138 176.274 34.7772 173.754 33.847L169.277 32.329C166.742 31.5017 164.109 31.0106 161.446 30.868C159.928 30.9086 158.419 31.1026 156.94 31.447C155.396 31.789 154.171 32.128 151.314 33.007L144.804 35.007C145.315 35.4921 145.871 35.9274 146.464 36.307L150.083 35.207L153.074 34.323L154.274 33.969C156.591 33.1827 159.008 32.7305 161.452 32.626C163.732 32.7368 165.987 33.1507 168.158 33.857L173.758 35.735C176.293 36.6 178.936 37.105 181.611 37.235C184.285 37.1032 186.928 36.5983 189.463 35.735L195.053 33.857C197.225 33.1551 199.479 32.7438 201.759 32.634C204.203 32.7387 206.619 33.1909 208.935 33.977L210.135 34.331L213.125 35.215L216.751 36.315C217.341 35.9309 217.896 35.4959 218.41 35.015M211.116 39.255L210.707 39.106L209.587 38.733C207.059 37.8797 204.424 37.3839 201.759 37.26C199.485 37.3626 197.233 37.7449 195.053 38.398L193.939 38.728C193.373 38.9133 192.998 39.0377 192.813 39.101L191.693 39.486L190.581 39.865L189.461 40.244C186.948 41.1735 184.307 41.7108 181.63 41.837C179.346 41.7375 177.087 41.3212 174.918 40.6L173.798 40.245L172.68 39.866L171.566 39.487L170.446 39.102L169.32 38.729C166.794 37.878 164.161 37.3842 161.498 37.262C159.221 37.3636 156.966 37.7458 154.783 38.4L153.671 38.73C152.879 38.985 152.715 39.042 152.141 39.252L154.392 40.421L154.892 40.266C157.026 39.543 159.252 39.1285 161.503 39.035C163.394 39.1065 165.269 39.4115 167.085 39.943L168.205 40.267L169.317 40.628L170.443 41L171.563 41.386L172.677 41.765L173.795 42.138C176.32 43.0133 178.959 43.5186 181.629 43.638C183.907 43.5408 186.163 43.1475 188.339 42.468L189.457 42.133L190.577 41.76L191.689 41.381L192.809 40.995L193.935 40.623L195.049 40.262C197.216 39.5358 199.475 39.1216 201.759 39.032C204.006 39.1267 206.229 39.5412 208.359 40.263L208.859 40.418L211.116 39.255ZM147.19 12.807V17.707C146.131 18.1618 144.992 18.3998 143.84 18.407C140.968 18.407 138.95 16.19 138.95 13.035C138.921 12.2605 139.053 11.4884 139.339 10.7681C139.625 10.0478 140.059 9.39524 140.612 8.85216C141.165 8.30908 141.825 7.88747 142.55 7.61434C143.276 7.3412 144.05 7.22256 144.824 7.266C146.994 7.32846 149.115 7.92507 150.999 9.003V5.749C148.934 4.74079 146.67 4.20807 144.372 4.19C138.31 4.19 134.438 7.61801 134.438 12.985C134.438 18.091 138.195 21.485 143.838 21.485C146.53 21.437 149.169 20.7228 151.518 19.406V12.807H147.19ZM155.117 4.668V21.013H159.383V7.75001H161.222C163.634 7.75001 164.715 8.519 164.715 10.235C164.715 11.987 163.505 12.986 161.383 12.986L160.445 12.961H159.966L165.892 21.013H171.344L165.91 14.442C166.842 14.0784 167.638 13.4365 168.192 12.6037C168.746 11.7709 169.029 10.7877 169.004 9.78801C169.004 6.32601 166.76 4.66701 162.08 4.66701L155.117 4.668ZM194.812 4.668V21.013H199.076V14.025H206.613V21.013H210.878V4.666H206.613V10.707H199.076V4.666L194.812 4.668ZM215.43 4.668V21.013H227.697V17.807H219.689V13.926H225.577V10.847H219.689V7.86801H226.764V4.668H215.43ZM171.659 12.844C171.659 7.754 175.906 4.03201 181.714 4.03201C187.522 4.03201 191.767 7.754 191.768 12.842C191.769 17.93 187.514 21.642 181.714 21.642C175.914 21.642 171.659 17.917 171.659 12.842M176.159 12.842C176.137 13.586 176.264 14.3269 176.533 15.0208C176.803 15.7146 177.208 16.3474 177.727 16.8816C178.245 17.4157 178.865 17.8403 179.551 18.1303C180.236 18.4203 180.973 18.5697 181.717 18.5697C182.462 18.5697 183.199 18.4203 183.884 18.1303C184.57 17.8403 185.19 17.4157 185.708 16.8816C186.227 16.3474 186.632 15.7146 186.902 15.0208C187.171 14.3269 187.298 13.586 187.276 12.842C187.298 12.098 187.171 11.3571 186.902 10.6632C186.632 9.96936 186.227 9.33659 185.708 8.80245C185.19 8.26831 184.57 7.84366 183.884 7.55368C183.199 7.26369 182.462 7.11427 181.717 7.11427C180.973 7.11427 180.236 7.26369 179.551 7.55368C178.865 7.84366 178.245 8.26831 177.727 8.80245C177.208 9.33659 176.803 9.96936 176.533 10.6632C176.264 11.3571 176.137 12.098 176.159 12.842Z" fill="var(--fill-0, white)"/>
<path id="Path 409" d="M92.258 38.704C91.905 38.674 91.727 38.974 91.496 39.36C91.453 39.433 91.405 39.523 91.353 39.618C91.119 40.054 90.653 40.764 90.137 40.764C89.568 40.764 89.426 40.051 89.43 39.433C89.4743 38.5896 89.5995 37.7524 89.804 36.933C90.0378 36.2427 90.1147 35.5088 90.029 34.785C89.629 33.839 88.436 33.64 87.508 33.64C87.2141 33.6411 86.9206 33.6601 86.629 33.697L86.445 33.72V33.536C86.4537 33.3503 86.4233 33.1649 86.3559 32.9916C86.2884 32.8184 86.1854 32.6612 86.0535 32.5303C85.9216 32.3993 85.7637 32.2974 85.59 32.2312C85.4163 32.1651 85.2306 32.136 85.045 32.146H85.032C84.459 32.146 83.798 32.461 83.751 33.033C83.748 33.3793 83.8455 33.719 84.0317 34.011C84.2179 34.303 84.4848 34.5347 84.8 34.678C85.012 34.816 85.141 34.898 85.139 35.05C85.0914 36.0829 84.8356 37.0955 84.387 38.027C84.2037 38.5399 83.8808 38.9915 83.4546 39.3307C83.0284 39.6699 82.516 39.8834 81.975 39.947H81.964C81.6956 39.958 81.4281 39.9107 81.1797 39.8085C80.9313 39.7063 80.708 39.5516 80.525 39.355C81.1962 38.9733 81.7587 38.4263 82.1588 37.7659C82.5589 37.1055 82.7835 36.3537 82.811 35.582C82.8313 35.2958 82.7904 35.0085 82.6912 34.7393C82.5919 34.4701 82.4364 34.2251 82.2351 34.0206C82.0338 33.8161 81.7913 33.6567 81.5237 33.5532C81.2561 33.4496 80.9695 33.4042 80.683 33.42C80.3384 33.4362 80.0017 33.5286 79.6972 33.6906C79.3927 33.8527 79.1279 34.0803 78.922 34.357C77.941 35.614 78.184 37.866 78.738 38.989C78.2939 39.1837 77.8364 39.3461 77.369 39.475C77.369 39.524 77.369 39.456 77.369 39.456C77.141 35.256 74.146 33.37 73.256 33.37C72.595 33.37 72.463 34.087 72.386 34.339C72.0314 35.5598 71.5434 36.7379 70.931 37.852C70.6902 38.3019 70.3601 38.698 69.961 39.016L69.948 38.075C69.8106 36.7864 69.2759 35.5723 68.418 34.601C68.1175 34.1722 67.7313 33.8104 67.2837 33.5386C66.8362 33.2668 66.3371 33.0909 65.818 33.022C65.6567 33.0124 65.4955 33.0431 65.349 33.1113C65.2026 33.1796 65.0754 33.2833 64.979 33.413C64.8702 33.7834 64.8578 34.1755 64.943 34.552C64.9839 34.955 64.9916 35.3607 64.966 35.765C64.796 37.89 63.92 39.565 62.976 39.565C61.976 39.565 61.829 37.942 61.87 37.28C61.8994 36.7745 62.0147 36.2777 62.211 35.811C62.2806 35.7026 62.3322 35.5838 62.364 35.459C62.346 35.212 61.864 34.944 61.69 34.868L61.653 34.85L61.642 34.81C61.5504 34.4153 61.3289 34.0627 61.013 33.8088C60.6972 33.555 60.3052 33.4145 59.9 33.41C59.4271 33.4062 58.9596 33.5104 58.5331 33.7148C58.1066 33.9191 57.7324 34.2181 57.439 34.589C56.6958 34.58 55.9853 34.2819 55.458 33.758L55.465 33.701C55.7921 31.7501 55.4707 29.7458 54.55 27.995C54.183 27.485 53.222 27.367 52.965 28.495C52.6229 30.5671 52.8861 32.6938 53.723 34.62V34.626C53.5262 35.8709 53.1104 37.0711 52.495 38.171C51.838 39.416 50.795 40.901 49.542 40.901C46.675 40.901 46.216 36.278 46.289 34.491C46.3142 33.8096 46.3988 33.1317 46.542 32.465C46.824 31.513 47.242 30.965 47.186 30.682C47.086 30.323 46.192 30.093 45.345 30.447C44.6882 30.9451 44.2296 31.6602 44.051 32.465C43.744 33.275 43.462 34.242 43.177 35.165C43.03 35.632 42.898 36.118 42.767 36.588C42.255 38.42 41.815 40.002 41.126 40.002C41.0751 39.9996 41.0252 39.9866 40.9796 39.9639C40.934 39.9412 40.8936 39.9092 40.861 39.87C40.021 38.997 39.941 36.755 40.319 34.189C40.6338 32.0293 41.19 29.9117 41.977 27.876C42.505 26.476 42.131 25.921 41.243 25.851C40.543 25.796 39.857 26.204 39.888 26.551C40.004 27.832 39.243 29.937 38.796 33.069C38.047 38.346 39.25 40.733 39.672 41.569C39.8019 41.9437 40.0379 42.2727 40.3512 42.5159C40.6645 42.7591 41.0417 42.9061 41.437 42.939C42.699 42.939 43.15 40.103 43.577 38.05C44.201 35.061 44.877 35.416 44.877 35.416C44.877 35.416 44.363 42.764 49.497 42.764C51.282 42.764 52.777 41.175 53.566 39.842C54.3265 38.4976 54.8683 37.0407 55.171 35.526C55.6951 35.6789 56.2349 35.7719 56.78 35.803L56.725 35.922C56.3742 36.6956 56.106 37.5041 55.925 38.334C55.825 38.814 55.612 40.792 56.405 41.78C56.537 41.9465 56.7059 42.0802 56.8983 42.1704C57.0908 42.2606 57.3015 42.305 57.514 42.3H57.521C58.421 42.3 59.861 40.457 60.559 39.3L60.809 38.885L60.868 39.367C60.8872 39.9166 61.1075 40.44 61.487 40.838C61.8665 41.236 62.3789 41.4808 62.927 41.526C63.024 41.5258 63.1209 41.5191 63.217 41.506C63.5737 41.4488 63.9045 41.2841 64.1652 41.0339C64.4259 40.7838 64.6041 40.4601 64.676 40.106L64.849 39.506C64.9211 40.2028 65.2429 40.8499 65.755 41.3278C66.2671 41.8058 66.9349 42.0822 67.635 42.106C71.026 42.106 73.048 36.481 73.288 35.483C73.305 35.418 73.373 35.42 73.479 35.475C75.551 36.51 76.579 38.326 75.925 39.651C75.834 39.834 75.061 39.916 74.325 39.788C73.589 39.66 73.073 39.364 72.779 39.888C72.361 40.638 73.579 42.226 75.154 42.226C75.6432 42.2348 76.1214 42.0803 76.513 41.787C76.9045 41.4936 77.1871 41.078 77.316 40.606C78.0133 40.4994 78.6927 40.2975 79.335 40.006C79.6454 40.4288 80.0524 40.7711 80.5221 41.0044C80.9919 41.2377 81.5106 41.3552 82.035 41.347C82.3423 41.3455 82.6483 41.3082 82.947 41.236C83.6066 41.0209 84.2047 40.6499 84.6904 40.1545C85.176 39.6591 85.5351 39.0538 85.737 38.39C86.1367 37.3992 86.4102 36.3621 86.551 35.303L86.567 35.21L86.654 35.174C86.9564 35.0402 87.2824 34.9675 87.613 34.96C88.513 34.97 88.548 35.593 88.548 35.593C88.5332 36.2468 88.4123 36.8939 88.19 37.509V37.516C88.126 37.725 88.062 37.943 88.006 38.156C87.973 38.287 87.937 38.417 87.906 38.545C87.7505 39.0282 87.6519 39.5279 87.612 40.034C87.5365 40.5639 87.6743 41.1021 87.995 41.5306C88.3158 41.9592 88.7933 42.243 89.323 42.32C89.4092 42.3319 89.496 42.338 89.583 42.338C91.457 42.338 92.407 39.424 92.416 39.394C92.4596 39.306 92.4852 39.2102 92.4914 39.1121C92.4976 39.0141 92.4842 38.9158 92.452 38.823C92.431 38.7912 92.4031 38.7645 92.3704 38.745C92.3377 38.7254 92.301 38.7135 92.263 38.71M58.143 40.243C58.0397 40.2419 57.9392 40.2096 57.8546 40.1504C57.77 40.0911 57.7053 40.0077 57.669 39.911C57.026 38.565 58.086 35.896 58.086 35.896C58.9248 35.9034 59.761 35.8025 60.574 35.596C60.574 35.596 59.589 40.246 58.144 40.246M67.038 40.246C66.7521 40.2603 66.4686 40.1876 66.2249 40.0375C65.9812 39.8873 65.7888 39.6668 65.673 39.405C65.4912 38.6879 65.5618 37.9301 65.873 37.259C66.0819 36.6792 66.2108 36.0736 66.256 35.459L66.264 35.234C66.8764 35.539 67.4057 35.988 67.8063 36.5426C68.2069 37.0972 68.4669 37.7408 68.564 38.418C68.5956 38.6403 68.5803 38.8667 68.5191 39.0827C68.4578 39.2987 68.352 39.4995 68.2084 39.6721C68.0649 39.8447 67.8867 39.9853 67.6854 40.0849C67.4842 40.1844 67.2643 40.2406 67.04 40.25M79.84 38.365C79.6371 37.9531 79.5241 37.5027 79.5084 37.0438C79.4927 36.5849 79.5747 36.1278 79.749 35.703C79.8203 35.5019 79.9526 35.3281 80.1273 35.2056C80.3021 35.0832 80.5106 35.0183 80.724 35.02C81.233 35.072 81.575 35.658 81.324 36.592C81.0481 37.3359 80.5239 37.9628 79.84 38.365ZM46.44 6.11201C47.519 6.81201 50.11 6.39501 50.99 6.28101C51.645 6.19701 53.027 6.07301 53.027 6.07301C52.9889 7.4238 53.1073 8.77447 53.38 10.098C53.5428 10.6151 53.6152 11.1563 53.594 11.698C53.5795 11.7215 53.5604 11.7418 53.5379 11.7578C53.5154 11.7738 53.49 11.7851 53.463 11.791C53.024 11.8674 52.5785 11.9009 52.133 11.891C50.7686 11.8559 49.4068 11.7514 48.053 11.578C47.9663 11.5709 47.8791 11.5824 47.7973 11.6117C47.7154 11.6411 47.6407 11.6875 47.5783 11.748C47.5158 11.8085 47.4669 11.8816 47.435 11.9625C47.403 12.0434 47.3887 12.1301 47.393 12.217C47.393 13.085 48.786 14.35 49.904 15.366C50.227 15.66 50.531 15.937 50.771 16.176C51.7336 17.1058 52.6204 18.111 53.423 19.182C54.059 20.013 54.297 20.348 54.859 20.348C54.9881 20.3657 55.1196 20.3548 55.2441 20.3161C55.3685 20.2774 55.483 20.2117 55.5792 20.1239C55.6755 20.036 55.7513 19.928 55.8012 19.8076C55.8511 19.6872 55.8739 19.5572 55.868 19.427C55.957 18.471 55.648 15.991 55.615 15.166C55.582 14.341 55.503 13.241 55.503 13.241C56.3802 13.1197 57.2658 13.0708 58.151 13.095C60.403 13.18 61.842 13.795 61.219 16.484C61.0128 17.0838 60.9179 17.7161 60.939 18.35C61.03 18.928 61.703 18.99 61.99 18.99C62.1473 18.9903 62.3042 18.9738 62.458 18.941C62.3883 17.9851 62.5081 17.0248 62.8105 16.1153C63.1129 15.2058 63.5919 14.3649 64.22 13.641C64.5874 13.2315 65.0388 12.9061 65.5434 12.687C66.048 12.4678 66.594 12.36 67.144 12.371C67.505 12.371 67.961 12.328 67.961 11.92C67.961 11.176 67.402 10.696 66.539 10.696C64.444 10.696 62.913 12.677 62.439 14.128L62.369 13.513C62.3507 13.2283 62.2606 12.9529 62.107 12.7125C61.9535 12.472 61.7416 12.2744 61.491 12.138C59.991 11.251 55.299 11.683 55.291 11.684C55.2714 11.6868 55.2515 11.6824 55.2348 11.6718C55.2181 11.6612 55.2058 11.6449 55.2 11.626C54.9974 10.5814 54.8943 9.52003 54.892 8.45601C54.868 6.95601 55.046 6.047 55.473 5.856C56.697 5.308 62.107 5.80201 63.183 6.15601C63.2595 6.18315 63.3425 6.1857 63.4206 6.16328C63.4986 6.14087 63.5676 6.09462 63.618 6.03101C63.6902 5.88862 63.7243 5.72995 63.7169 5.57047C63.7096 5.41099 63.661 5.25614 63.576 5.12101C63.4565 4.85627 63.2847 4.61844 63.0709 4.42184C62.8572 4.22524 62.6058 4.07392 62.332 3.97701C61.5274 3.7552 60.6928 3.66172 59.859 3.7C58.422 3.7 56.659 3.84001 54.801 3.98901C52.83 4.14701 50.794 4.31001 49.026 4.31001C48.0456 4.32975 47.0657 4.25102 46.101 4.075C45.971 4.364 45.656 5.59701 46.431 6.11401M53.943 13.414C54.1636 14.3438 54.1547 15.3134 53.917 16.239C53.792 16.615 53.588 16.806 53.31 16.806C52.541 16.806 50.385 14.947 50.385 14.094C50.385 13.362 52.026 13.283 52.732 13.283C53.081 13.283 53.447 13.307 53.825 13.332C53.85 13.3345 53.874 13.3434 53.8946 13.3577C53.9153 13.3721 53.9319 13.3914 53.943 13.414ZM103.292 14.05C103.244 14.05 103.143 14.05 103.143 14.072C103.095 14.994 101.897 17.242 100.071 17.242C99.6955 17.2572 99.3266 17.1396 99.029 16.91C99.6615 16.4209 100.175 15.7944 100.529 15.0779C100.884 14.3613 101.071 13.5735 101.077 12.774C101.088 12.4882 101.041 12.2031 100.939 11.9359C100.837 11.6688 100.682 11.425 100.483 11.2194C100.284 11.0139 100.046 10.8507 99.782 10.7397C99.5184 10.6288 99.235 10.5724 98.949 10.574C97.149 10.574 95.965 12.214 95.965 14.351C95.944 15.2161 96.1883 16.0668 96.665 16.789C96.3082 16.9815 95.9208 17.111 95.52 17.172C95.4054 17.1852 95.2903 17.1925 95.175 17.194C92.451 17.149 93 12.656 93 12.656C93.5467 11.0246 93.8661 9.32561 93.949 7.60701C93.949 6.67801 93.734 5.593 92.749 5.593C91.841 5.593 91.113 7.22201 91.113 10.055C91.1204 10.7902 91.1991 11.523 91.348 12.243C91.348 12.243 91.178 12.226 91.034 12.227C89.157 12.234 87.173 14.116 86.523 15.99C86.3103 16.2786 86.041 16.5207 85.7315 16.7016C85.422 16.8825 85.0788 16.9983 84.723 17.042C82.506 17.042 82.804 13.614 83.016 12.73C82.9775 12.6181 82.9018 12.5229 82.8015 12.4601C82.7012 12.3973 82.5825 12.3708 82.465 12.385C82.2547 12.3857 82.049 12.4463 81.8719 12.5596C81.6948 12.6729 81.5537 12.8344 81.465 13.025C81.2971 13.9196 80.9821 14.7803 80.533 15.572C80.007 16.472 79.401 16.941 78.785 16.941C78.6859 16.9406 78.5882 16.9175 78.4995 16.8735C78.4107 16.8295 78.3332 16.7657 78.273 16.687C77.607 15.887 77.867 13.462 77.973 12.887C77.9654 12.7978 77.94 12.711 77.8983 12.6318C77.8566 12.5526 77.7994 12.4826 77.7301 12.4259C77.6608 12.3692 77.5808 12.327 77.4949 12.3017C77.409 12.2765 77.3189 12.2688 77.23 12.279C76.9376 12.2882 76.6564 12.3937 76.43 12.579C76.275 12.691 75.371 14.132 75.267 14.29C74.6758 15.3619 73.8334 16.2743 72.812 16.949C72.5716 17.0623 72.3097 17.1223 72.044 17.125C71.7669 17.1181 71.4978 17.0302 71.2701 16.872C71.0425 16.7138 70.8661 16.4923 70.763 16.235C71.8604 15.8061 72.8019 15.0543 73.463 14.079C74.001 13.3702 74.2439 12.4808 74.141 11.597C74.0469 11.1899 73.8062 10.8317 73.4647 10.5908C73.1233 10.3499 72.7051 10.2432 72.29 10.291C71.9426 10.292 71.5978 10.3511 71.27 10.466C70.456 10.7644 69.7594 11.3162 69.2827 12.0403C68.806 12.7644 68.5744 13.6224 68.622 14.488C68.6099 14.8981 68.6455 15.3081 68.728 15.71C67.5058 15.904 66.2546 15.6558 65.199 15.01C65.1504 15.2276 65.149 15.4531 65.1949 15.6713C65.2408 15.8895 65.3329 16.0954 65.465 16.275C65.7479 16.5731 66.0942 16.8038 66.4783 16.9501C66.8624 17.0963 67.2745 17.1544 67.684 17.12C68.1423 17.1091 68.5979 17.046 69.042 16.932C69.3243 17.4699 69.7446 17.923 70.2599 18.2448C70.7752 18.5666 71.3668 18.7454 71.974 18.763C73.774 18.763 74.999 16.997 75.434 16.075C75.5151 15.9014 75.6094 15.7342 75.716 15.575C75.7512 15.5202 75.7972 15.4732 75.8512 15.4367C75.9052 15.4003 75.966 15.3752 76.03 15.363C76.205 15.349 76.237 15.457 76.237 15.457C76.2546 15.5722 76.257 15.6892 76.244 15.805C76.1486 16.7145 76.4004 17.6264 76.949 18.358C77.1125 18.5575 77.3178 18.7186 77.5503 18.8301C77.7829 18.9415 78.0371 19.0005 78.295 19.003C80.449 19.003 81.645 16.455 81.645 16.455C81.6577 17.0733 81.8992 17.6649 82.3227 18.1156C82.7462 18.5662 83.3217 18.8439 83.938 18.895C84.4084 18.8789 84.8693 18.7581 85.2871 18.5413C85.7048 18.3246 86.069 18.0173 86.353 17.642C86.3418 17.9355 86.389 18.2283 86.492 18.5034C86.5949 18.7785 86.7516 19.0304 86.9527 19.2444C87.1539 19.4584 87.3956 19.6303 87.6638 19.75C87.932 19.8698 88.2214 19.9351 88.515 19.942C89.86 19.942 91.249 18.584 92.058 16.486L92.171 16.186C92.2102 16.8693 92.4977 17.5148 92.9795 18.001C93.4613 18.4871 94.1041 18.7806 94.787 18.826C95.77 18.8324 96.7349 18.5606 97.57 18.042C97.9662 18.4083 98.442 18.6776 98.96 18.8286C99.4781 18.9795 100.024 19.0081 100.555 18.912C101.485 18.7901 102.343 18.3433 102.975 17.6505C103.608 16.9577 103.976 16.0635 104.013 15.126C104.013 14.626 103.728 14.071 103.292 14.055M70.943 12.955C71.0985 12.7505 71.2939 12.5796 71.5174 12.4528C71.7408 12.3259 71.9877 12.2457 72.243 12.217C72.4 12.2117 72.5533 12.2652 72.673 12.367C72.7815 12.487 72.8532 12.6356 72.8796 12.7951C72.906 12.9547 72.886 13.1185 72.822 13.267C72.5797 13.7661 72.232 14.2067 71.803 14.5586C71.374 14.9104 70.8739 15.165 70.337 15.305C70.2513 14.894 70.2608 14.4687 70.3648 14.0619C70.4688 13.6551 70.6645 13.2775 70.937 12.958M90.583 16.602C90.091 17.502 89.483 17.99 88.862 17.99C88.7444 17.9909 88.6279 17.9676 88.5198 17.9216C88.4116 17.8755 88.314 17.8077 88.2332 17.7224C88.1523 17.637 88.0899 17.536 88.0498 17.4254C88.0097 17.3149 87.9927 17.1973 88 17.08C87.951 15.572 89.7 13.862 90.734 13.862C91.265 13.862 91.348 14.04 91.348 14.04C91.2606 14.9343 91.0012 15.8032 90.584 16.599M98.084 15.945C97.6445 15.4614 97.4006 14.8315 97.4 14.178C97.4 12.978 97.931 12.431 98.642 12.392C98.7913 12.3702 98.9435 12.3815 99.0879 12.4251C99.2323 12.4687 99.3653 12.5435 99.4776 12.6443C99.5898 12.7451 99.6785 12.8693 99.7373 13.0082C99.7961 13.1471 99.8237 13.2973 99.818 13.448C99.818 14.777 98.083 15.948 98.083 15.948M41.148 15.792C41.148 15.599 41.006 15.617 40.948 15.703C39.8657 16.7931 38.4307 17.4623 36.9 17.591C36.6318 17.5754 36.3723 17.4898 36.1474 17.3428C35.9224 17.1958 35.7399 16.9924 35.618 16.753C37.618 15.453 39.475 13.94 39.475 11.722C39.4833 11.3876 39.4207 11.0553 39.2915 10.7467C39.1623 10.4382 38.9693 10.1605 38.7252 9.93178C38.4811 9.70308 38.1914 9.52856 37.8751 9.41968C37.5589 9.3108 37.2231 9.27002 36.89 9.3C34.964 9.3 33.222 10.991 33.222 14.244C33.2096 14.9376 33.3068 15.6288 33.51 16.292C33.51 16.292 30.899 17.728 30.133 16.652C29.612 15.921 30.15 14.082 30.539 12.776C30.939 11.425 31.139 10.76 30.729 10.285C29.95 9.38501 26.959 9.44801 26.959 9.44801C26.9565 9.26001 26.9156 9.07451 26.8389 8.90285C26.7622 8.73119 26.6513 8.57699 26.5129 8.44968C26.3746 8.32238 26.2117 8.22464 26.0342 8.16245C25.8568 8.10026 25.6686 8.07493 25.481 8.08801C25.324 8.09413 25.1701 8.1328 25.0288 8.20156C24.8876 8.27033 24.7622 8.36768 24.6605 8.48746C24.5589 8.60724 24.4833 8.74682 24.4384 8.89737C24.3936 9.04791 24.3805 9.20614 24.4 9.36201C24.3972 9.64914 24.4703 9.93193 24.612 10.1817C24.7538 10.4314 24.959 10.6392 25.207 10.784C25.3641 10.9051 25.4855 11.0665 25.5584 11.251C25.6313 11.4355 25.6529 11.6362 25.621 11.832C25.544 13.107 24.556 16.461 23.004 16.461C22.196 16.461 21.527 15.848 21.527 14.287C21.5218 13.9074 21.5702 13.529 21.671 13.163C21.854 12.612 21.878 12.253 21.742 12.063C21.6705 11.9869 21.5818 11.929 21.4833 11.8942C21.3848 11.8594 21.2795 11.8487 21.176 11.863C19.901 11.863 19.62 13.493 19.415 14.191C19.115 15.229 18.624 16.626 17.649 16.626C16.917 16.626 16.687 15.703 16.687 15.032C16.7575 13.9738 16.8877 12.9205 17.077 11.877C17.019 11.495 16.552 11.277 15.927 11.277C15.6297 11.2736 15.3337 11.3155 15.049 11.401C15.9428 10.2189 16.4019 8.76498 16.349 7.28401C16.349 2.26301 12.634 5.72205e-06 8.506 5.72205e-06C3.752 0.0100057 0 2.905 0 8.054C0.082 11.432 2.337 14.441 5.087 14.331C5.18283 14.3339 5.27722 14.3071 5.35723 14.2543C5.43725 14.2015 5.49899 14.1253 5.534 14.036C5.149 13.81 1.862 12.426 2.3 7.37101C2.39264 5.8515 3.04108 4.41919 4.12176 3.34699C5.20244 2.2748 6.63981 1.63767 8.16 1.557C12.76 1.557 14.46 4.57401 14.46 7.68401C14.46 8.81801 14.037 12.118 12.16 12.384C12.0675 12.3963 11.9743 12.4027 11.881 12.403C11.3316 12.3989 10.8047 12.1841 10.409 11.803C10.0716 11.5137 9.86085 11.1038 9.822 10.661C9.75988 9.64633 9.88739 8.62896 10.198 7.66101C10.0642 7.63029 9.92732 7.61453 9.79 7.61401C9.58249 7.61478 9.37813 7.66476 9.19369 7.75985C9.00925 7.85494 8.84999 7.99242 8.729 8.16101C7.945 9.09201 7.829 11.161 7.829 12.316C7.75579 14.8024 8.11513 17.2826 8.891 19.646C9.00484 19.9505 9.20111 20.2173 9.45788 20.4167C9.71464 20.6161 10.0218 20.7401 10.345 20.775C10.5455 20.7804 10.7406 20.7089 10.89 20.575C11.19 20.309 11.19 19.957 10.868 19.496L10.855 19.477L10.849 19.458C10.2941 17.5808 9.97792 15.6412 9.908 13.685L9.883 13.285C10.1252 13.606 10.4381 13.8669 10.7975 14.0474C11.1568 14.2279 11.5529 14.3233 11.955 14.326C12.4082 14.3007 12.8484 14.1656 13.2377 13.9323C13.6271 13.699 13.9539 13.3746 14.19 12.987C14.4445 12.8027 14.7381 12.6798 15.048 12.628C15.768 12.628 15.179 13.937 15.095 15.539C15.002 17.26 15.578 19.132 17.139 19.132C18.009 19.132 19.465 18.259 20.081 15.088C20.337 17.988 21.813 18.707 22.875 18.707C23.716 18.707 24.842 18.145 25.895 15.643C26.4782 14.2735 26.8027 12.8077 26.852 11.32C27.0701 11.2167 27.3115 11.1725 27.552 11.192C28.103 11.192 29.08 11.363 29.229 12.005C29.2593 12.5404 29.1427 13.0739 28.892 13.548C28.5111 14.4642 28.2535 15.427 28.126 16.411C28.0632 16.7668 28.0763 17.1319 28.1645 17.4823C28.2528 17.8327 28.4141 18.1604 28.638 18.444C28.8475 18.6637 29.1019 18.8355 29.3839 18.9479C29.6659 19.0602 29.9688 19.1104 30.272 19.095C31.6312 18.9763 32.9343 18.4975 34.047 17.708C34.2744 18.1189 34.6098 18.4597 35.017 18.6936C35.4241 18.9275 35.8875 19.0456 36.357 19.035C37.485 19.014 38.5731 18.6138 39.446 17.899C40.2337 17.4035 40.8353 16.6613 41.157 15.788M34.844 14.449C34.8258 13.6421 35.0589 12.8496 35.511 12.181C35.6521 11.9513 35.8433 11.7564 36.0703 11.6109C36.2973 11.4654 36.5543 11.3732 36.822 11.341C36.907 11.347 36.9899 11.37 37.0658 11.4088C37.1417 11.4475 37.209 11.5011 37.2637 11.5665C37.3184 11.6318 37.3594 11.7075 37.3842 11.7891C37.409 11.8706 37.4171 11.9563 37.408 12.041V12.048C37.447 14.015 34.981 15.548 34.981 15.548C34.8754 15.1913 34.8291 14.8197 34.844 14.448M30.965 37.126C31.037 35.736 30.416 34.788 29.365 34.788C28.147 34.788 26.953 36.015 26.448 36.836L26.159 37.309L26.178 36.756C26.2142 36.4325 26.1854 36.105 26.0932 35.7927C26.001 35.4805 25.8472 35.1899 25.641 34.938C25.4978 34.7921 25.3265 34.6767 25.1374 34.5989C24.9483 34.521 24.7454 34.4823 24.541 34.485C24.2937 34.4804 24.0496 34.5419 23.834 34.663C22.9813 35.3346 22.3515 36.2482 22.027 37.284C21.949 37.462 21.872 37.654 21.79 37.853C21.363 38.908 20.879 40.104 19.99 40.104C19.8952 40.105 19.8014 40.0853 19.715 40.0463C19.6287 40.0072 19.5519 39.9498 19.49 39.878C19.012 39.341 19.102 37.948 19.235 36.794C19.261 36.571 19.286 36.359 19.301 36.167C19.2261 36.0246 19.1212 35.9002 18.9934 35.8025C18.8656 35.7047 18.718 35.636 18.561 35.601L18.541 35.511C18.4928 35.1739 18.3658 34.8529 18.1702 34.5741C17.9746 34.2953 17.7161 34.0666 17.4155 33.9065C17.1149 33.7465 16.7808 33.6595 16.4404 33.6528C16.0999 33.6462 15.7626 33.7199 15.456 33.868C14.6841 34.3239 14.0316 34.9569 13.5524 35.7146C13.0732 36.4723 12.781 37.3331 12.7 38.226C12.4135 39.5864 12.6709 41.0049 13.417 42.178C13.6215 42.4125 13.8886 42.5841 14.1869 42.6726C14.4853 42.7611 14.8026 42.763 15.102 42.678C15.559 42.578 16.089 41.235 16.477 40.254C16.927 39.112 17.158 38.56 17.469 38.56C17.5452 38.5636 17.618 38.5925 17.676 38.642L17.67 38.732C17.5473 39.7757 17.8396 40.8258 18.484 41.656C18.6191 41.813 18.7861 41.9394 18.9739 42.0269C19.1616 42.1143 19.3659 42.1607 19.573 42.163C20.891 42.163 22.084 39.963 22.954 38.363C23.508 37.34 23.81 36.804 24.071 36.746C24.135 36.7274 24.2031 36.7277 24.2669 36.7469C24.3308 36.766 24.3878 36.8032 24.431 36.854C24.746 37.228 24.541 38.463 24.391 39.363C24.333 39.694 24.291 40.172 24.291 40.172C24.246 40.929 24.311 41.727 24.923 41.961C25.095 42.0146 25.2749 42.0386 25.455 42.032C25.6038 42.0335 25.7524 42.0215 25.899 41.996C25.968 41.983 25.972 41.912 25.974 41.89C25.7841 40.2996 26.2071 38.6966 27.157 37.407C27.2851 37.1883 27.4637 37.0035 27.6779 36.868C27.8921 36.7325 28.1355 36.6502 28.388 36.628C29.313 36.628 29.363 37.935 29.411 39.197C29.452 40.28 29.499 41.391 30.059 41.667C30.3157 41.7347 30.5867 41.7261 30.8386 41.642C31.0904 41.558 31.3123 41.4023 31.477 41.194C31.5801 41.0741 31.6395 40.9229 31.6457 40.7649C31.6519 40.607 31.6044 40.4516 31.511 40.324C31.0954 39.3106 30.9079 38.218 30.962 37.124M17.662 35.955C17.105 36.174 16.641 37.224 16.233 38.155C15.79 39.155 15.408 40.026 14.876 40.026C14.646 40.026 14.245 39.903 14.149 39.086C14.103 38.2331 14.2588 37.3813 14.604 36.6C15.025 35.6 15.657 34.805 16.536 34.805C17.509 34.805 17.79 35.905 17.79 35.905L17.662 35.955Z" fill="var(--fill-0, white)"/>
</g>
</svg>
