<svg xmlns="http://www.w3.org/2000/svg" viewBox="134 0 94 44" fill="none">
<path d="M225.085 28.707L224.9 29.018C224.548 29.6244 224.135 30.1939 223.669 30.718C223.095 30.8089 222.514 30.8527 221.932 30.849C219.252 30.7213 216.602 30.2163 214.063 29.349L209.586 27.838C207.073 26.9124 204.434 26.3742 201.759 26.242C199.477 26.3488 197.221 26.7629 195.05 27.473L189.46 29.345C186.933 30.2074 184.298 30.7123 181.632 30.845C178.964 30.7126 176.327 30.2077 173.798 29.345L168.209 27.473C166.038 26.7626 163.782 26.3485 161.5 26.242C158.825 26.3733 156.186 26.9104 153.672 27.835L149.195 29.346C146.655 30.2135 144.004 30.7185 141.323 30.846C140.744 30.8501 140.166 30.8063 139.594 30.715C139.122 30.1944 138.707 29.6244 138.357 29.015L138.17 28.704C139.225 28.9049 140.296 29.0173 141.37 29.04C144.044 28.9057 146.683 28.3693 149.198 27.449L153.675 25.931C156.207 25.097 158.84 24.6057 161.502 24.47C164.163 24.6061 166.793 25.0975 169.324 25.931L173.801 27.449C176.317 28.3697 178.957 28.9061 181.633 29.04C184.308 28.9061 186.948 28.3697 189.464 27.449L193.941 25.931C196.471 25.0982 199.1 24.6069 201.76 24.47C204.424 24.6051 207.058 25.0965 209.592 25.931L214.069 27.449C216.584 28.3695 219.223 28.9059 221.897 29.04C222.969 29.0171 224.038 28.9047 225.092 28.704M218.415 35.004L211.899 33.004C208.968 32.104 207.835 31.789 206.273 31.444C204.792 31.0999 203.279 30.9069 201.759 30.868C199.099 31.0106 196.47 31.5018 193.938 32.329L189.459 33.847C186.938 34.7748 184.29 35.3114 181.606 35.438C178.923 35.3138 176.274 34.7772 173.754 33.847L169.277 32.329C166.742 31.5017 164.109 31.0106 161.446 30.868C159.928 30.9086 158.419 31.1026 156.94 31.447C155.396 31.789 154.171 32.128 151.314 33.007L144.804 35.007C145.315 35.4921 145.871 35.9274 146.464 36.307L150.083 35.207L153.074 34.323L154.274 33.969C156.591 33.1827 159.008 32.7305 161.452 32.626C163.732 32.7368 165.987 33.1507 168.158 33.857L173.758 35.735C176.293 36.6 178.936 37.105 181.611 37.235C184.285 37.1032 186.928 36.5983 189.463 35.735L195.053 33.857C197.225 33.1551 199.479 32.7438 201.759 32.634C204.203 32.7387 206.619 33.1909 208.935 33.977L210.135 34.331L213.125 35.215L216.751 36.315C217.341 35.9309 217.896 35.4959 218.41 35.015M211.116 39.255L210.707 39.106L209.587 38.733C207.059 37.8797 204.424 37.3839 201.759 37.26C199.485 37.3626 197.233 37.7449 195.053 38.398L193.939 38.728C193.373 38.9133 192.998 39.0377 192.813 39.101L191.693 39.486L190.581 39.865L189.461 40.244C186.948 41.1735 184.307 41.7108 181.63 41.837C179.346 41.7375 177.087 41.3212 174.918 40.6L173.798 40.245L172.68 39.866L171.566 39.487L170.446 39.102L169.32 38.729C166.794 37.878 164.161 37.3842 161.498 37.262C159.221 37.3636 156.966 37.7458 154.783 38.4L153.671 38.73C152.879 38.985 152.715 39.042 152.141 39.252L154.392 40.421L154.892 40.266C157.026 39.543 159.252 39.1285 161.503 39.035C163.394 39.1065 165.269 39.4115 167.085 39.943L168.205 40.267L169.317 40.628L170.443 41L171.563 41.386L172.677 41.765L173.795 42.138C176.32 43.0133 178.959 43.5186 181.629 43.638C183.907 43.5408 186.163 43.1475 188.339 42.468L189.457 42.133L190.577 41.76L191.689 41.381L192.809 40.995L193.935 40.623L195.049 40.262C197.216 39.5358 199.475 39.1216 201.759 39.032C204.006 39.1267 206.229 39.5412 208.359 40.263L208.859 40.418L211.116 39.255ZM147.19 12.807V17.707C146.131 18.1618 144.992 18.3998 143.84 18.407C140.968 18.407 138.95 16.19 138.95 13.035C138.921 12.2605 139.053 11.4884 139.339 10.7681C139.625 10.0478 140.059 9.39524 140.612 8.85216C141.165 8.30908 141.825 7.88747 142.55 7.61434C143.276 7.3412 144.05 7.22256 144.824 7.266C146.994 7.32846 149.115 7.92507 150.999 9.003V5.749C148.934 4.74079 146.67 4.20807 144.372 4.19C138.31 4.19 134.438 7.61801 134.438 12.985C134.438 18.091 138.195 21.485 143.838 21.485C146.53 21.437 149.169 20.7228 151.518 19.406V12.807H147.19ZM155.117 4.668V21.013H159.383V7.75001H161.222C163.634 7.75001 164.715 8.519 164.715 10.235C164.715 11.987 163.505 12.986 161.383 12.986L160.445 12.961H159.966L165.892 21.013H171.344L165.91 14.442C166.842 14.0784 167.638 13.4365 168.192 12.6037C168.746 11.7709 169.029 10.7877 169.004 9.78801C169.004 6.32601 166.76 4.66701 162.08 4.66701L155.117 4.668ZM194.812 4.668V21.013H199.076V14.025H206.613V21.013H210.878V4.666H206.613V10.707H199.076V4.666L194.812 4.668ZM215.43 4.668V21.013H227.697V17.807H219.689V13.926H225.577V10.847H219.689V7.86801H226.764V4.668H215.43ZM171.659 12.844C171.659 7.754 175.906 4.03201 181.714 4.03201C187.522 4.03201 191.767 7.754 191.768 12.842C191.769 17.93 187.514 21.642 181.714 21.642C175.914 21.642 171.659 17.917 171.659 12.842M176.159 12.842C176.137 13.586 176.264 14.3269 176.533 15.0208C176.803 15.7146 177.208 16.3474 177.727 16.8816C178.245 17.4157 178.865 17.8403 179.551 18.1303C180.236 18.4203 180.973 18.5697 181.717 18.5697C182.462 18.5697 183.199 18.4203 183.884 18.1303C184.57 17.8403 185.19 17.4157 185.708 16.8816C186.227 16.3474 186.632 15.7146 186.902 15.0208C187.171 14.3269 187.298 13.586 187.276 12.842C187.298 12.098 187.171 11.3571 186.902 10.6632C186.632 9.96936 186.227 9.33659 185.708 8.80245C185.19 8.26831 184.57 7.84366 183.884 7.55368C183.199 7.26369 182.462 7.11427 181.717 7.11427C180.973 7.11427 180.236 7.26369 179.551 7.55368C178.865 7.84366 178.245 8.26831 177.727 8.80245C177.208 9.33659 176.803 9.96936 176.533 10.6632C176.264 11.3571 176.137 12.098 176.159 12.842Z" fill="#ffffff"/>
</svg>
